<svg width="200" height="135" viewBox="0 0 200 135" fill="none" xmlns="http://www.w3.org/2000/svg">
<mask id="mask0_205_1058" style="mask-type:luminance" maskUnits="userSpaceOnUse" x="0" y="0" width="200" height="200">
<circle cx="100" cy="100" r="100" fill="white"/>
</mask>
<g mask="url(#mask0_205_1058)">
<path d="M50.009 -103.75L50.3628 -104.104L50.0095 -104.457L49.6557 -104.104L50.009 -103.75ZM50.3623 -103.397L50.7161 -103.75L50.3623 -103.397ZM49.3014 -103.044L48.9481 -103.397L48.5943 -103.044L48.9477 -102.69L49.3014 -103.044ZM49.6548 -102.69L50.0085 -103.043L50.0085 -103.043L49.6548 -102.69ZM311.638 159.647L311.992 159.293L311.638 159.647ZM311.991 160.001L311.637 160.354L311.991 160.708L312.344 160.354L311.991 160.001ZM312.699 159.294L313.052 159.648L313.406 159.294L313.053 158.941L312.699 159.294ZM312.345 158.94L311.992 159.293L312.345 158.94ZM41.5238 -95.2652L41.8775 -95.6185L41.5242 -95.9723L41.1704 -95.619L41.5238 -95.2652ZM41.8771 -94.9114L42.2309 -95.2647L42.2309 -95.2647L41.8771 -94.9114ZM40.8162 -94.5586L40.4629 -94.9124L40.1091 -94.5591L40.4624 -94.2053L40.8162 -94.5586ZM41.1695 -94.2048L40.8157 -93.8515L40.8157 -93.8515L41.1695 -94.2048ZM303.153 168.132L302.799 168.485L303.153 168.132ZM303.506 168.486L303.152 168.839L303.505 169.193L303.859 168.839L303.506 168.486ZM304.213 167.779L304.567 168.133L304.921 167.779L304.567 167.426L304.213 167.779ZM303.86 167.425L304.214 167.072L303.86 167.425ZM33.3918 -86.4261L33.038 -86.0727L33.038 -86.0727L33.3918 -86.4261ZM33.0385 -86.7799L33.3923 -87.1332L33.0389 -87.487L32.6852 -87.1336L33.0385 -86.7799ZM295.375 175.911L295.729 175.557L295.375 175.911ZM295.728 176.264L296.081 176.618L296.435 176.265L296.082 175.911L295.728 176.264ZM295.021 176.971L294.667 177.324L295.02 177.678L295.374 177.325L295.021 176.971ZM294.667 176.617L295.021 176.264L294.667 176.617ZM32.6842 -85.7194L32.3304 -85.3661L32.3304 -85.3661L32.6842 -85.7194ZM32.3309 -86.0732L31.9776 -86.427L31.6238 -86.0737L31.9771 -85.7199L32.3309 -86.0732ZM24.5532 -78.2945L24.907 -78.6478L24.5537 -79.0016L24.1999 -78.6483L24.5532 -78.2945ZM24.9065 -77.9407L25.2603 -78.294L25.2603 -78.294L24.9065 -77.9407ZM23.8456 -77.5879L23.4923 -77.9417L23.1385 -77.5883L23.4918 -77.2346L23.8456 -77.5879ZM24.1989 -77.2341L24.5527 -77.5874L24.5527 -77.5874L24.1989 -77.2341ZM286.182 185.103L285.828 185.456L286.182 185.103ZM286.535 185.456L286.182 185.81L286.535 186.163L286.889 185.81L286.535 185.456ZM287.243 184.75L287.596 185.103L287.95 184.75L287.597 184.396L287.243 184.75ZM286.89 184.396L286.536 184.749L286.89 184.396ZM16.4212 -69.4554L16.775 -69.8087L16.775 -69.8087L16.4212 -69.4554ZM16.0679 -69.8091L16.4217 -70.1625L16.0684 -70.5163L15.7146 -70.1629L16.0679 -69.8091ZM278.404 192.881L278.05 193.235L278.404 192.881ZM278.758 193.235L279.111 193.589L279.465 193.236L279.111 192.882L278.758 193.235ZM278.05 193.942L277.696 194.295L278.05 194.649L278.403 194.295L278.05 193.942ZM277.697 193.588L277.343 193.941L277.697 193.588ZM15.7136 -68.7487L16.0674 -69.102L16.0674 -69.102L15.7136 -68.7487ZM15.3603 -69.1025L15.007 -69.4563L14.6532 -69.103L15.0065 -68.7492L15.3603 -69.1025ZM7.58263 -61.3243L7.93642 -61.6776L7.5831 -62.0314L7.22931 -61.6781L7.58263 -61.3243ZM7.93594 -60.9705L8.28973 -61.3238L8.28973 -61.3238L7.93594 -60.9705ZM6.87504 -60.6177L6.52173 -60.9714L6.16794 -60.6181L6.52125 -60.2643L6.87504 -60.6177ZM7.22836 -60.2639L7.58215 -60.6172L7.58215 -60.6172L7.22836 -60.2639ZM269.211 202.073L268.858 202.426L269.211 202.073ZM269.565 202.427L269.211 202.78L269.564 203.134L269.918 202.78L269.565 202.427ZM270.272 201.72L270.626 202.074L270.979 201.72L270.626 201.367L270.272 201.72ZM269.919 201.366L269.565 201.719L269.919 201.366ZM-0.549353 -52.4849L-0.195561 -52.8382L-0.195562 -52.8382L-0.549353 -52.4849ZM-0.902669 -52.8387L-0.548878 -53.192L-0.902193 -53.5458L-1.25599 -53.1925L-0.902669 -52.8387ZM261.434 209.852L261.08 210.205L261.434 209.852ZM261.787 210.206L262.14 210.559L262.494 210.206L262.141 209.852L261.787 210.206ZM261.079 210.912L260.726 211.265L261.079 211.619L261.433 211.266L261.079 210.912ZM260.726 210.558L260.372 210.912L260.726 210.558ZM-1.25694 -51.7783L-0.903145 -52.1316L-0.903146 -52.1316L-1.25694 -51.7783ZM-1.61025 -52.1321L-1.96357 -52.4858L-2.31736 -52.1325L-1.96404 -51.7787L-1.61025 -52.1321ZM-9.38794 -44.3533L-9.03415 -44.7067L-9.38746 -45.0604L-9.74126 -44.7071L-9.38794 -44.3533ZM-9.03462 -43.9995L-8.68083 -44.3529L-8.68083 -44.3529L-9.03462 -43.9995ZM-10.0955 -43.6467L-10.4488 -44.0005L-10.8026 -43.6472L-10.4493 -43.2934L-10.0955 -43.6467ZM-9.74221 -43.2929L-9.38842 -43.6462L-9.38842 -43.6462L-9.74221 -43.2929ZM252.241 219.044L251.887 219.397L252.241 219.044ZM252.594 219.397L252.24 219.751L252.594 220.105L252.947 219.751L252.594 219.397ZM253.302 218.691L253.655 219.045L254.009 218.691L253.656 218.338L253.302 218.691ZM252.948 218.337L252.595 218.69L252.948 218.337ZM-17.5199 -35.5144L-17.1661 -35.8678L-17.1661 -35.8678L-17.5199 -35.5144ZM-17.8732 -35.8682L-17.5194 -36.2215L-17.8727 -36.5753L-18.2265 -36.222L-17.8732 -35.8682ZM244.463 226.822L244.109 227.175L244.463 226.822ZM244.816 227.176L245.17 227.53L245.524 227.176L245.17 226.823L244.816 227.176ZM244.109 227.883L243.755 228.236L244.108 228.59L244.462 228.236L244.109 227.883ZM243.756 227.529L243.402 227.882L243.756 227.529ZM-18.2275 -34.8078L-17.8737 -35.1611L-17.8737 -35.1611L-18.2275 -34.8078ZM-18.5808 -35.1616L-18.9341 -35.5154L-19.2879 -35.1621L-18.9346 -34.8083L-18.5808 -35.1616ZM-26.3585 -27.3829L-26.0047 -27.7362L-26.358 -28.09L-26.7118 -27.7367L-26.3585 -27.3829ZM-26.0052 -27.0291L-25.6514 -27.3824L-25.6514 -27.3824L-26.0052 -27.0291ZM-27.0661 -26.6762L-27.4194 -27.03L-27.7732 -26.6767L-27.4199 -26.3229L-27.0661 -26.6762ZM-26.7128 -26.3225L-26.359 -26.6758L-26.359 -26.6758L-26.7128 -26.3225ZM235.27 236.014L234.916 236.367L235.27 236.014ZM235.624 236.368L235.27 236.721L235.623 237.075L235.977 236.722L235.624 236.368ZM236.331 235.661L236.684 236.015L237.038 235.662L236.685 235.308L236.331 235.661ZM235.978 235.308L235.624 235.661L235.978 235.308ZM-34.4905 -18.5437L-34.1367 -18.8971L-34.1367 -18.8971L-34.4905 -18.5437ZM-34.8438 -18.8975L-34.49 -19.2508L-34.8433 -19.6046L-35.1971 -19.2513L-34.8438 -18.8975ZM227.493 243.793L227.139 244.146L227.493 243.793ZM227.846 244.147L228.199 244.5L228.553 244.147L228.2 243.793L227.846 244.147ZM227.138 244.853L226.785 245.207L227.138 245.56L227.492 245.207L227.138 244.853ZM226.785 244.5L226.431 244.853L226.785 244.5ZM-35.198 -17.8371L-34.8443 -18.1904L-34.8443 -18.1904L-35.198 -17.8371ZM-35.5514 -18.1909L-35.9047 -18.5447L-36.2585 -18.1914L-35.9052 -17.8376L-35.5514 -18.1909ZM-43.3291 -10.4122L-42.9753 -10.7655L-43.3286 -11.1193L-43.6824 -10.766L-43.3291 -10.4122ZM-42.9758 -10.0584L-42.622 -10.4117L-42.622 -10.4117L-42.9758 -10.0584ZM-44.0367 -9.70555L-44.39 -10.0593L-44.7438 -9.70602L-44.3904 -9.35223L-44.0367 -9.70555ZM-43.6833 -9.35176L-43.3295 -9.70507L-43.3295 -9.70507L-43.6833 -9.35176ZM218.3 252.985L217.946 253.338L218.3 252.985ZM218.653 253.339L218.299 253.692L218.653 254.046L219.006 253.692L218.653 253.339ZM219.361 252.632L219.714 252.986L220.068 252.632L219.714 252.279L219.361 252.632ZM219.007 252.278L218.653 252.632L219.007 252.278ZM-51.461 -1.57353L-51.1072 -1.92684L-51.1072 -1.92684L-51.461 -1.57353ZM-51.8143 -1.92732L-51.4606 -2.28064L-51.8139 -2.63442L-52.1677 -2.28111L-51.8143 -1.92732ZM210.522 260.763L210.168 261.116L210.522 260.763ZM210.875 261.117L211.229 261.471L211.582 261.117L211.229 260.764L210.875 261.117ZM210.168 261.824L209.814 262.177L210.167 262.531L210.521 262.177L210.168 261.824ZM209.814 261.47L209.461 261.823L209.814 261.47ZM-52.1686 -0.866899L-51.8148 -1.22021L-51.8148 -1.22021L-52.1686 -0.866899ZM-52.5219 -1.22069L-52.8752 -1.57448L-53.229 -1.22116L-52.8757 -0.867373L-52.5219 -1.22069ZM-60.2996 6.55827L-59.9458 6.20496L-60.2991 5.85117L-60.6529 6.20448L-60.2996 6.55827ZM-59.9463 6.91206L-59.5925 6.55875L-59.5925 6.55875L-59.9463 6.91206ZM-61.0072 7.2649L-61.3605 6.91111L-61.7143 7.26443L-61.361 7.61822L-61.0072 7.2649ZM-60.6539 7.61869L-60.3001 7.26538L-60.3001 7.26538L-60.6539 7.61869ZM201.329 269.955L200.975 270.309L201.329 269.955ZM201.682 270.309L201.329 270.662L201.682 271.016L202.036 270.663L201.682 270.309ZM202.39 269.602L202.743 269.956L203.097 269.603L202.744 269.249L202.39 269.602ZM202.037 269.249L201.683 269.602L202.037 269.249ZM-68.4316 15.3974L-68.0778 15.0441L-68.0778 15.0441L-68.4316 15.3974ZM-68.7849 15.0436L-68.4311 14.6903L-68.7844 14.3365L-69.1382 14.6898L-68.7849 15.0436ZM193.551 277.734L193.198 278.087L193.551 277.734ZM193.905 278.088L194.258 278.442L194.612 278.088L194.259 277.735L193.905 278.088ZM193.197 278.794L192.843 279.148L193.197 279.502L193.551 279.148L193.197 278.794ZM192.844 278.441L192.49 278.794L192.844 278.441ZM-69.1392 16.104L-68.7854 15.7507L-68.7854 15.7507L-69.1392 16.104ZM-69.4925 15.7503L-69.8458 15.3965L-70.1996 15.7498L-69.8463 16.1036L-69.4925 15.7503ZM-77.2702 23.5287L-76.9164 23.1754L-77.2697 22.8216L-77.6235 23.1749L-77.2702 23.5287ZM-76.9169 23.8825L-76.5631 23.5292L-76.5631 23.5292L-76.9169 23.8825ZM-77.9778 24.2354L-78.3311 23.8816L-78.6849 24.2349L-78.3316 24.5887L-77.9778 24.2354ZM-77.6245 24.5892L-77.2707 24.2358L-77.2707 24.2358L-77.6245 24.5892ZM184.359 286.926L184.005 287.279L184.359 286.926ZM184.712 287.28L184.358 287.633L184.711 287.987L185.065 287.633L184.712 287.28ZM185.42 286.573L185.773 286.927L186.127 286.573L185.773 286.22L185.42 286.573ZM185.066 286.219L184.712 286.572L185.066 286.219ZM-85.4021 32.3679L-85.0484 32.0146L-85.0484 32.0146L-85.4021 32.3679ZM-85.7555 32.0141L-85.4017 31.6608L-85.755 31.307L-86.1088 31.6603L-85.7555 32.0141ZM176.581 294.704L176.227 295.058L176.581 294.704ZM176.934 295.058L177.288 295.412L177.641 295.059L177.288 294.705L176.934 295.058ZM176.227 295.765L175.873 296.118L176.226 296.472L176.58 296.119L176.227 295.765ZM175.873 295.411L175.52 295.764L175.873 295.411ZM-86.1097 33.0745L-85.7559 32.7212L-85.7559 32.7212L-86.1097 33.0745ZM-86.463 32.7207L-86.8164 32.3669L-87.1702 32.7202L-86.8168 33.074L-86.463 32.7207ZM-94.2407 40.4994L-93.887 40.1461L-94.2403 39.7923L-94.5941 40.1456L-94.2407 40.4994ZM-93.8874 40.8532L-93.5336 40.4999L-93.5336 40.4999L-93.8874 40.8532ZM-94.9483 41.2061L-95.3016 40.8523L-95.6554 41.2056L-95.3021 41.5594L-94.9483 41.2061ZM-94.595 41.5599L-94.2412 41.2065L-94.2412 41.2065L-94.595 41.5599ZM167.388 303.896L167.034 304.25L167.388 303.896ZM167.741 304.25L167.388 304.604L167.741 304.957L168.095 304.604L167.741 304.25ZM168.449 303.544L168.802 303.897L169.156 303.544L168.803 303.19L168.449 303.544ZM168.096 303.19L167.742 303.543L168.096 303.19ZM49.6552 -103.397L50.0085 -103.043L50.7161 -103.75L50.3628 -104.104L49.6552 -103.397ZM49.6548 -102.69L50.3623 -103.397L49.6557 -104.104L48.9481 -103.397L49.6548 -102.69ZM50.0085 -103.043L49.6552 -103.397L48.9477 -102.69L49.301 -102.337L50.0085 -103.043ZM311.992 159.293L50.0085 -103.043L49.301 -102.337L311.284 160L311.992 159.293ZM312.345 159.647L311.992 159.293L311.284 160L311.637 160.354L312.345 159.647ZM312.345 158.94L311.638 159.647L312.344 160.354L313.052 159.648L312.345 158.94ZM311.992 159.293L312.345 159.647L313.053 158.941L312.699 158.587L311.992 159.293ZM50.0085 -103.043L311.992 159.293L312.699 158.587L50.7161 -103.75L50.0085 -103.043ZM41.17 -94.9119L41.5233 -94.5581L42.2309 -95.2647L41.8775 -95.6185L41.17 -94.9119ZM41.1695 -94.2048L41.8771 -94.9114L41.1704 -95.619L40.4629 -94.9124L41.1695 -94.2048ZM41.5233 -94.5581L41.17 -94.9119L40.4624 -94.2053L40.8157 -93.8515L41.5233 -94.5581ZM303.506 167.779L41.5233 -94.5581L40.8157 -93.8515L302.799 168.485L303.506 167.779ZM303.86 168.132L303.506 167.779L302.799 168.485L303.152 168.839L303.86 168.132ZM303.86 167.425L303.153 168.132L303.859 168.839L304.567 168.133L303.86 167.425ZM303.506 167.779L303.86 168.132L304.567 167.426L304.214 167.072L303.506 167.779ZM41.5233 -94.5581L303.506 167.779L304.214 167.072L42.2309 -95.2647L41.5233 -94.5581ZM33.7456 -86.7794L33.3923 -87.1332L32.6847 -86.4265L33.038 -86.0727L33.7456 -86.7794ZM295.729 175.557L33.7456 -86.7794L33.038 -86.0727L295.021 176.264L295.729 175.557ZM296.082 175.911L295.729 175.557L295.021 176.264L295.374 176.618L296.082 175.911ZM295.374 177.325L296.081 176.618L295.375 175.911L294.667 176.617L295.374 177.325ZM294.313 176.97L294.667 177.324L295.374 176.618L295.021 176.264L294.313 176.97ZM32.3304 -85.3661L294.313 176.97L295.021 176.264L33.038 -86.0727L32.3304 -85.3661ZM31.9771 -85.7199L32.3304 -85.3661L33.038 -86.0727L32.6847 -86.4265L31.9771 -85.7199ZM32.6852 -87.1336L31.9776 -86.427L32.6842 -85.7194L33.3918 -86.4261L32.6852 -87.1336ZM24.1994 -77.9412L24.5527 -77.5874L25.2603 -78.294L24.907 -78.6478L24.1994 -77.9412ZM24.1989 -77.2341L24.9065 -77.9407L24.1999 -78.6483L23.4923 -77.9417L24.1989 -77.2341ZM24.5527 -77.5874L24.1994 -77.9412L23.4918 -77.2346L23.8451 -76.8808L24.5527 -77.5874ZM286.536 184.749L24.5527 -77.5874L23.8451 -76.8808L285.828 185.456L286.536 184.749ZM286.889 185.103L286.536 184.749L285.828 185.456L286.182 185.81L286.889 185.103ZM286.89 184.396L286.182 185.103L286.889 185.81L287.596 185.103L286.89 184.396ZM286.536 184.749L286.889 185.103L287.597 184.396L287.243 184.043L286.536 184.749ZM24.5527 -77.5874L286.536 184.749L287.243 184.043L25.2603 -78.294L24.5527 -77.5874ZM16.775 -69.8087L16.4217 -70.1625L15.7141 -69.4558L16.0674 -69.102L16.775 -69.8087ZM278.758 192.528L16.775 -69.8087L16.0674 -69.102L278.05 193.235L278.758 192.528ZM279.111 192.882L278.758 192.528L278.05 193.235L278.404 193.588L279.111 192.882ZM278.403 194.295L279.111 193.589L278.404 192.881L277.697 193.588L278.403 194.295ZM277.343 193.941L277.696 194.295L278.404 193.588L278.05 193.235L277.343 193.941ZM15.3598 -68.3954L277.343 193.941L278.05 193.235L16.0674 -69.102L15.3598 -68.3954ZM15.0065 -68.7492L15.3598 -68.3954L16.0674 -69.102L15.7141 -69.4558L15.0065 -68.7492ZM15.7146 -70.1629L15.007 -69.4563L15.7136 -68.7487L16.4212 -69.4554L15.7146 -70.1629ZM7.22884 -60.971L7.58215 -60.6172L8.28973 -61.3238L7.93642 -61.6776L7.22884 -60.971ZM7.22836 -60.2639L7.93594 -60.9705L7.22931 -61.6781L6.52173 -60.9714L7.22836 -60.2639ZM7.58215 -60.6172L7.22883 -60.971L6.52125 -60.2643L6.87457 -59.9106L7.58215 -60.6172ZM269.565 201.719L7.58215 -60.6172L6.87457 -59.9106L268.858 202.426L269.565 201.719ZM269.919 202.073L269.565 201.719L268.858 202.426L269.211 202.78L269.919 202.073ZM269.919 201.366L269.211 202.073L269.918 202.78L270.626 202.074L269.919 201.366ZM269.565 201.719L269.919 202.073L270.626 201.367L270.273 201.013L269.565 201.719ZM7.58215 -60.6172L269.565 201.719L270.273 201.013L8.28973 -61.3238L7.58215 -60.6172ZM-0.195562 -52.8382L-0.548878 -53.192L-1.25646 -52.4854L-0.903144 -52.1316L-0.195562 -52.8382ZM261.787 209.498L-0.195561 -52.8382L-0.903145 -52.1316L261.08 210.205L261.787 209.498ZM262.141 209.852L261.787 209.498L261.08 210.205L261.433 210.559L262.141 209.852ZM261.433 211.266L262.14 210.559L261.434 209.852L260.726 210.558L261.433 211.266ZM260.372 210.912L260.726 211.265L261.433 210.559L261.08 210.205L260.372 210.912ZM-1.61073 -51.425L260.372 210.912L261.08 210.205L-0.903145 -52.1316L-1.61073 -51.425ZM-1.96404 -51.7787L-1.61073 -51.425L-0.903146 -52.1316L-1.25646 -52.4854L-1.96404 -51.7787ZM-1.25599 -53.1925L-1.96357 -52.4858L-1.25694 -51.7783L-0.549353 -52.4849L-1.25599 -53.1925ZM-9.74173 -44L-9.38841 -43.6462L-8.68083 -44.3529L-9.03415 -44.7067L-9.74173 -44ZM-9.74221 -43.2929L-9.03462 -43.9995L-9.74126 -44.7071L-10.4488 -44.0005L-9.74221 -43.2929ZM-9.38842 -43.6462L-9.74173 -44L-10.4493 -43.2934L-10.096 -42.9396L-9.38842 -43.6462ZM252.595 218.69L-9.38842 -43.6462L-10.096 -42.9396L251.887 219.397L252.595 218.69ZM252.948 219.044L252.595 218.69L251.887 219.397L252.24 219.751L252.948 219.044ZM252.948 218.337L252.241 219.044L252.947 219.751L253.655 219.045L252.948 218.337ZM252.595 218.69L252.948 219.044L253.656 218.338L253.302 217.984L252.595 218.69ZM-9.38842 -43.6462L252.595 218.69L253.302 217.984L-8.68083 -44.3529L-9.38842 -43.6462ZM-17.1661 -35.8678L-17.5194 -36.2215L-18.227 -35.5149L-17.8737 -35.1611L-17.1661 -35.8678ZM244.817 226.469L-17.1661 -35.8678L-17.8737 -35.1611L244.109 227.175L244.817 226.469ZM245.17 226.823L244.817 226.469L244.109 227.175L244.463 227.529L245.17 226.823ZM244.462 228.236L245.17 227.53L244.463 226.822L243.756 227.529L244.462 228.236ZM243.402 227.882L243.755 228.236L244.463 227.529L244.109 227.175L243.402 227.882ZM-18.5813 -34.4545L243.402 227.882L244.109 227.175L-17.8737 -35.1611L-18.5813 -34.4545ZM-18.9346 -34.8083L-18.5813 -34.4545L-17.8737 -35.1611L-18.227 -35.5149L-18.9346 -34.8083ZM-18.2265 -36.222L-18.9341 -35.5154L-18.2275 -34.8078L-17.5199 -35.5144L-18.2265 -36.222ZM-26.7123 -27.0296L-26.359 -26.6758L-25.6514 -27.3824L-26.0047 -27.7362L-26.7123 -27.0296ZM-26.7128 -26.3225L-26.0052 -27.0291L-26.7118 -27.7367L-27.4194 -27.03L-26.7128 -26.3225ZM-26.359 -26.6758L-26.7123 -27.0296L-27.4199 -26.3229L-27.0666 -25.9691L-26.359 -26.6758ZM235.624 235.661L-26.359 -26.6758L-27.0666 -25.9691L234.916 236.367L235.624 235.661ZM235.977 236.015L235.624 235.661L234.916 236.367L235.27 236.721L235.977 236.015ZM235.978 235.308L235.27 236.014L235.977 236.722L236.684 236.015L235.978 235.308ZM235.624 235.661L235.977 236.015L236.685 235.308L236.332 234.954L235.624 235.661ZM-26.359 -26.6758L235.624 235.661L236.332 234.954L-25.6514 -27.3824L-26.359 -26.6758ZM-34.1367 -18.8971L-34.49 -19.2508L-35.1976 -18.5442L-34.8443 -18.1904L-34.1367 -18.8971ZM227.846 243.44L-34.1367 -18.8971L-34.8443 -18.1904L227.139 244.146L227.846 243.44ZM228.2 243.793L227.846 243.44L227.139 244.146L227.492 244.5L228.2 243.793ZM227.492 245.207L228.199 244.5L227.493 243.793L226.785 244.5L227.492 245.207ZM226.431 244.853L226.785 245.207L227.492 244.5L227.139 244.146L226.431 244.853ZM-35.5518 -17.4838L226.431 244.853L227.139 244.146L-34.8443 -18.1904L-35.5518 -17.4838ZM-35.9052 -17.8376L-35.5518 -17.4838L-34.8443 -18.1904L-35.1976 -18.5442L-35.9052 -17.8376ZM-35.1971 -19.2513L-35.9047 -18.5447L-35.198 -17.8371L-34.4905 -18.5437L-35.1971 -19.2513ZM-43.6829 -10.0589L-43.3295 -9.70507L-42.622 -10.4117L-42.9753 -10.7655L-43.6829 -10.0589ZM-43.6833 -9.35176L-42.9758 -10.0584L-43.6824 -10.766L-44.39 -10.0593L-43.6833 -9.35176ZM-43.3295 -9.70507L-43.6829 -10.0589L-44.3904 -9.35223L-44.0371 -8.99844L-43.3295 -9.70507ZM218.653 252.632L-43.3295 -9.70507L-44.0371 -8.99844L217.946 253.338L218.653 252.632ZM219.007 252.985L218.653 252.632L217.946 253.338L218.299 253.692L219.007 252.985ZM219.007 252.278L218.3 252.985L219.006 253.692L219.714 252.986L219.007 252.278ZM218.653 252.632L219.007 252.985L219.714 252.279L219.361 251.925L218.653 252.632ZM-43.3295 -9.70507L218.653 252.632L219.361 251.925L-42.622 -10.4117L-43.3295 -9.70507ZM-51.1072 -1.92684L-51.4606 -2.28064L-52.1681 -1.574L-51.8148 -1.22021L-51.1072 -1.92684ZM210.876 260.41L-51.1072 -1.92684L-51.8148 -1.22021L210.168 261.116L210.876 260.41ZM211.229 260.764L210.876 260.41L210.168 261.116L210.522 261.47L211.229 260.764ZM210.521 262.177L211.229 261.471L210.522 260.763L209.814 261.47L210.521 262.177ZM209.461 261.823L209.814 262.177L210.522 261.47L210.168 261.116L209.461 261.823ZM-52.5224 -0.513584L209.461 261.823L210.168 261.116L-51.8148 -1.22021L-52.5224 -0.513584ZM-52.8757 -0.867373L-52.5224 -0.513583L-51.8148 -1.22021L-52.1681 -1.57401L-52.8757 -0.867373ZM-52.1677 -2.28111L-52.8752 -1.57448L-52.1686 -0.866899L-51.461 -1.57353L-52.1677 -2.28111ZM-60.6534 6.91159L-60.3001 7.26538L-59.5925 6.55875L-59.9458 6.20496L-60.6534 6.91159ZM-60.6539 7.61869L-59.9463 6.91206L-60.6529 6.20448L-61.3605 6.91111L-60.6539 7.61869ZM-60.3001 7.26538L-60.6534 6.91159L-61.361 7.61822L-61.0077 7.97201L-60.3001 7.26538ZM201.683 269.602L-60.3001 7.26538L-61.0077 7.97201L200.975 270.309L201.683 269.602ZM202.036 269.956L201.683 269.602L200.975 270.309L201.329 270.662L202.036 269.956ZM202.037 269.249L201.329 269.955L202.036 270.663L202.743 269.956L202.037 269.249ZM201.683 269.602L202.036 269.956L202.744 269.249L202.391 268.895L201.683 269.602ZM-60.3001 7.26538L201.683 269.602L202.391 268.895L-59.5925 6.55875L-60.3001 7.26538ZM-68.0778 15.0441L-68.4311 14.6903L-69.1387 15.3969L-68.7854 15.7507L-68.0778 15.0441ZM193.905 277.381L-68.0778 15.0441L-68.7854 15.7507L193.198 278.087L193.905 277.381ZM194.259 277.735L193.905 277.381L193.198 278.087L193.551 278.441L194.259 277.735ZM193.551 279.148L194.258 278.442L193.551 277.734L192.844 278.441L193.551 279.148ZM192.49 278.794L192.843 279.148L193.551 278.441L193.198 278.087L192.49 278.794ZM-69.493 16.4574L192.49 278.794L193.198 278.087L-68.7854 15.7507L-69.493 16.4574ZM-69.8463 16.1036L-69.493 16.4574L-68.7854 15.7507L-69.1387 15.3969L-69.8463 16.1036ZM-69.1382 14.6898L-69.8458 15.3965L-69.1392 16.104L-68.4316 15.3974L-69.1382 14.6898ZM-77.624 23.8821L-77.2707 24.2358L-76.5631 23.5292L-76.9164 23.1754L-77.624 23.8821ZM-77.6245 24.5892L-76.9169 23.8825L-77.6235 23.1749L-78.3311 23.8816L-77.6245 24.5892ZM-77.2707 24.2358L-77.624 23.8821L-78.3316 24.5887L-77.9782 24.9425L-77.2707 24.2358ZM184.712 286.572L-77.2707 24.2358L-77.9782 24.9425L184.005 287.279L184.712 286.572ZM185.066 286.926L184.712 286.572L184.005 287.279L184.358 287.633L185.066 286.926ZM185.066 286.219L184.359 286.926L185.065 287.633L185.773 286.927L185.066 286.219ZM184.712 286.572L185.066 286.926L185.773 286.22L185.42 285.866L184.712 286.572ZM-77.2707 24.2358L184.712 286.572L185.42 285.866L-76.5631 23.5292L-77.2707 24.2358ZM-85.0484 32.0146L-85.4017 31.6608L-86.1093 32.3674L-85.7559 32.7212L-85.0484 32.0146ZM176.935 294.351L-85.0484 32.0146L-85.7559 32.7212L176.227 295.058L176.935 294.351ZM177.288 294.705L176.935 294.351L176.227 295.058L176.58 295.412L177.288 294.705ZM176.58 296.119L177.288 295.412L176.581 294.704L175.873 295.411L176.58 296.119ZM175.52 295.764L175.873 296.118L176.58 295.412L176.227 295.058L175.52 295.764ZM-86.4635 33.4278L175.52 295.764L176.227 295.058L-85.7559 32.7212L-86.4635 33.4278ZM-86.8168 33.074L-86.4635 33.4278L-85.7559 32.7212L-86.1093 32.3674L-86.8168 33.074ZM-86.1088 31.6603L-86.8164 32.3669L-86.1097 33.0745L-85.4021 32.3679L-86.1088 31.6603ZM-94.5945 40.8528L-94.2412 41.2065L-93.5336 40.4999L-93.887 40.1461L-94.5945 40.8528ZM-94.595 41.5599L-93.8874 40.8532L-94.5941 40.1456L-95.3016 40.8523L-94.595 41.5599ZM-94.2412 41.2065L-94.5945 40.8527L-95.3021 41.5594L-94.9488 41.9132L-94.2412 41.2065ZM167.742 303.543L-94.2412 41.2065L-94.9488 41.9132L167.034 304.25L167.742 303.543ZM168.095 303.897L167.742 303.543L167.034 304.25L167.388 304.604L168.095 303.897ZM168.096 303.19L167.388 303.896L168.095 304.604L168.802 303.897L168.096 303.19ZM167.742 303.543L168.095 303.897L168.803 303.19L168.449 302.837L167.742 303.543ZM-94.2412 41.2065L167.742 303.543L168.449 302.837L-93.5336 40.4999L-94.2412 41.2065Z" fill="black"/>
</g>
</svg>
