<svg xmlns="http://www.w3.org/2000/svg" width="18" height="18" fill="none" viewBox="0 0 18 18">
  <g clip-path="url(#a)">
    <g>
      <path stroke="#000" stroke-linecap="round" stroke-linejoin="round" d="m9.63 1.402 2.044 4.127a.656.656 0 0 0 .527.385l4.513.669a.694.694 0 0 1 .386 1.196l-3.253 3.227a.683.683 0 0 0-.205.617l.784 4.539a.708.708 0 0 1-1.029.745L9.334 14.76a.758.758 0 0 0-.668 0l-4.063 2.147a.706.706 0 0 1-1.029-.745l.785-4.59a.682.682 0 0 0-.206-.618L.862 7.78a.694.694 0 0 1 .424-1.196l4.513-.669a.656.656 0 0 0 .527-.385L8.37 1.402a.694.694 0 0 1 1.26 0Z"/>
    </g>
  </g>
  <defs>
    <clipPath id="a">
      <path fill="#fff" d="M0 0h18v18H0z"/>
    </clipPath>
  </defs>
</svg>
