<svg xmlns="http://www.w3.org/2000/svg" width="24" height="24" fill="none" viewBox="0 0 24 24">
  <g clip-path="url(#a)">
    <g>
      <path stroke="#000" stroke-linecap="round" stroke-linejoin="round" d="m12.84 1.869 2.726 5.503a.874.874 0 0 0 .703.514l6.017.891a.925.925 0 0 1 .514 1.595l-4.337 4.302a.908.908 0 0 0-.274.823l1.045 6.052a.942.942 0 0 1-1.371.994l-5.417-2.863a1.011 1.011 0 0 0-.892 0l-5.417 2.863a.942.942 0 0 1-1.371-.994l1.045-6.12a.909.909 0 0 0-.274-.823L1.15 10.372a.926.926 0 0 1 .565-1.595l6.017-.891a.874.874 0 0 0 .703-.514l2.726-5.503a.926.926 0 0 1 1.68 0Z"/>
    </g>
  </g>
  <defs>
    <clipPath id="a">
      <path fill="#fff" d="M0 0h24v24H0z"/>
    </clipPath>
  </defs>
</svg>
